<svg id="Capa_1" data-name="Capa 1" xmlns="http://www.w3.org/2000/svg" viewBox="0 0 2000 1327.64"><defs><style>.cls-1{fill:#fff;}</style></defs><path class="cls-1" d="M823.85,269.75c-1.09,5.76-1.9,10.57-2.4,14.43q-.83-6-2.4-14.4t-2.63-12.46l-16-60.78h-22l-16,60.78q-1.42,4.89-3,13.76c-1.08,5.92-1.76,10.28-2.07,13.1q-1.65-12-5.33-28.42l-14-59.22H715L743,305h26.44l14.8-56.84q1-3.78,2.78-12.65t2.25-12.88q.3,3.27,2.29,12.8T794.41,248l14.87,57H835.8l27.94-108.49H840.83l-14,59.22Q825.51,261.1,823.85,269.75Z"/><path class="cls-1" d="M886.24,209.12q-13.56,14.28-13.56,41.37t13.52,41.56q13.51,14.46,38.76,14.47t38.76-14.47q13.51-14.48,13.52-41.41t-13.41-41.41q-13.41-14.4-38.72-14.4T886.24,209.12Zm66.59,41.52q0,36.58-27.87,36.58-13.89,0-20.88-9.2t-7-27.38q0-18.18,7.06-27.42t21-9.24Q952.83,214,952.83,250.64Z"/><path class="cls-1" d="M1070.54,246.07a28.58,28.58,0,0,0,5.33-17q0-16.39-10.74-24.45T1032,196.54h-32V305h23.29V263.4h12.39L1061.9,305h25.83q-7.5-10.68-32.29-47.27A35.26,35.26,0,0,0,1070.54,246.07Zm-47.25-1.37V215.39h7.06q11.26,0,16.63,3.26t5.38,11q0,7.79-5.26,11.42s-5.31,3.64-11.23,3.64Z"/><polygon class="cls-1" points="1101.55 196.54 1101.55 305.03 1169.38 305.03 1169.38 286.04 1124.84 286.04 1124.84 196.54 1101.55 196.54"/><path class="cls-1" d="M1188.46,196.54V305h31.1q29.14,0,44.58-14.24t15.44-41q0-25.17-14.88-39.19t-41.76-14Zm66.93,53.8q0,35.7-33.65,35.7h-10V215.39h12.39Q1255.39,215.39,1255.39,250.34Z"/><path class="cls-1" d="M374.1,932.44l8,25.83h25.09L368.24,849.33H339.77L301,958.27H326.1l8-25.83Zm-20-66.27c.4,1.78,1.06,4.21,2,7.27s5.07,16.31,12.43,39.71H339.92Q351.65,875.67,354.12,866.17Z"/><path class="cls-1" d="M519,909q-1.35,5.34-3,14t-2.4,14.43q-.83-6-2.4-14.39t-2.63-12.47l-16-60.78h-22l-16,60.78c-.95,3.27-2,7.85-3,13.77s-1.77,10.27-2.07,13.09q-1.65-12-5.33-28.42l-14.05-59.22H407.15l28,108.5h26.44l14.8-56.85q1-3.78,2.78-12.65t2.25-12.88q.3,3.27,2.29,12.8t2.82,12.58l14.87,57h26.52l27.94-108.5H533Z"/><path class="cls-1" d="M588.93,932.44h40l8,25.83H662L623.11,849.33H594.64L555.88,958.27H581ZM609,866.17c.4,1.78,1.06,4.21,2,7.27s5.07,16.31,12.43,39.71H594.79Q606.51,875.67,609,866.17Z"/><path class="cls-1" d="M746.38,899.31a28.6,28.6,0,0,0,5.33-17q0-16.41-10.74-24.46t-33.13-8.05h-32v108.5h23.29V916.63h12.39l26.22,41.64h25.83q-7.5-10.69-32.29-47.27A35.41,35.41,0,0,0,746.38,899.31Zm-23.44-5q-5.27,3.63-16.3,3.63h-7.51V868.62h7.06q11.26,0,16.63,3.27t5.38,11Q728.2,890.66,722.94,894.3Z"/><polygon class="cls-1" points="840.64 868.62 840.64 849.77 777.39 849.77 777.39 958.27 840.64 958.27 840.64 939.27 800.68 939.27 800.68 911.29 837.86 911.29 837.86 892.44 800.68 892.44 800.68 868.62 840.64 868.62"/><path class="cls-1" d="M892.92,849.77H863.55v108.5h20.81V907.21q0-9.27-1.43-31h.68l47.77,82.08H961V849.77H940v51.35q0,8.76,1.13,29.91h-.53Z"/><polygon class="cls-1" points="1051.87 868.62 1051.87 849.77 988.62 849.77 988.62 958.27 1051.87 958.27 1051.87 939.27 1011.91 939.27 1011.91 911.29 1049.09 911.29 1049.09 892.44 1011.91 892.44 1011.91 868.62 1051.87 868.62"/><path class="cls-1" d="M1112.67,937.86q-4.1,2.89-11.75,2.89a56.17,56.17,0,0,1-14.09-2,130.28,130.28,0,0,1-18.81-6.9v21.37q13.51,6.54,31.09,6.53,19.1,0,29.79-8.46t10.7-23.15q0-10.62-5.71-17.92t-21.1-14.59q-11.65-5.49-14.76-7.6a15.58,15.58,0,0,1-4.55-4.38,9.76,9.76,0,0,1-1.43-5.31,10,10,0,0,1,3.54-7.94q3.53-3,10.14-3a47.32,47.32,0,0,1,11.3,1.41,111,111,0,0,1,14.53,5l7.52-17.88a112,112,0,0,0-16.26-5.64,65.08,65.08,0,0,0-16.34-2q-17.43,0-27.31,8.24t-9.87,22.63a28.34,28.34,0,0,0,3,13.36,33.67,33.67,0,0,0,8,10q5,4.31,15.09,9a136,136,0,0,1,14.24,7.35,20,20,0,0,1,5.29,4.78,9.45,9.45,0,0,1,1.81,5.68Q1116.77,935,1112.67,937.86Z"/><path class="cls-1" d="M1197.4,937.86q-4.1,2.89-11.75,2.89a56.17,56.17,0,0,1-14.09-2,130.28,130.28,0,0,1-18.81-6.9v21.37q13.51,6.54,31.09,6.53,19.08,0,29.79-8.46t10.7-23.15q0-10.62-5.71-17.92t-21.1-14.59q-11.65-5.49-14.76-7.6a15.58,15.58,0,0,1-4.55-4.38,9.76,9.76,0,0,1-1.43-5.31,10,10,0,0,1,3.53-7.94q3.54-3,10.15-3a47.32,47.32,0,0,1,11.3,1.41,111,111,0,0,1,14.53,5l7.51-17.88a111.56,111.56,0,0,0-16.26-5.64,65,65,0,0,0-16.34-2q-17.42,0-27.3,8.24T1154,879.08a28.34,28.34,0,0,0,3,13.36,33.79,33.79,0,0,0,8,10q5,4.31,15.1,9a136,136,0,0,1,14.24,7.35,20,20,0,0,1,5.29,4.78,9.45,9.45,0,0,1,1.81,5.68Q1201.5,935,1197.4,937.86Z"/><path class="cls-1" d="M1339.63,901.42q1-3.78,2.78-12.65t2.26-12.88q.3,3.27,2.29,12.8t2.82,12.58l14.86,57h26.52l27.94-108.5h-22.9l-14,59.22q-1.35,5.34-3,14t-2.41,14.43q-.82-6-2.4-14.39t-2.63-12.47l-16-60.78h-22l-16,60.78c-1,3.27-2,7.85-3,13.77s-1.76,10.27-2.06,13.09q-1.65-12-5.34-28.42l-14-59.22h-22.91l28,108.5h26.44Z"/><polygon class="cls-1" points="1496.17 868.62 1496.17 849.77 1432.92 849.77 1432.92 958.27 1496.17 958.27 1496.17 939.27 1456.21 939.27 1456.21 911.29 1493.39 911.29 1493.39 892.44 1456.21 892.44 1456.21 868.62 1496.17 868.62"/><polygon class="cls-1" points="1582.33 868.62 1582.33 849.77 1519.08 849.77 1519.08 958.27 1582.33 958.27 1582.33 939.27 1542.37 939.27 1542.37 911.29 1579.55 911.29 1579.55 892.44 1542.37 892.44 1542.37 868.62 1582.33 868.62"/><polygon class="cls-1" points="1605.24 849.77 1605.24 958.27 1628.53 958.27 1628.53 919.53 1638.37 912.55 1667.14 958.27 1693.58 958.27 1654.97 897.79 1693.28 849.77 1667.44 849.77 1637.69 886.65 1628.53 899.42 1628.53 849.77 1605.24 849.77"/><path class="cls-1" d="M206.06,131.66a23.14,23.14,0,0,1,23.11-23.12H1765.42a23.14,23.14,0,0,1,23.11,23.12v216.5h30.81V131.66a54,54,0,0,0-53.92-53.93H229.17a54,54,0,0,0-53.92,53.93v216.5h30.81Z"/><path class="cls-1" d="M1788.53,1017.74a23.13,23.13,0,0,1-23.11,23.11H229.17a23.13,23.13,0,0,1-23.11-23.11V801.24H175.25v216.5a54,54,0,0,0,53.92,53.93H1765.42a54,54,0,0,0,53.92-53.93V801.24h-30.81Z"/><path class="cls-1" d="M1426.83,588.16h-14.72v32.92h15.3c7,0,23.23-1.61,23.23-16.46C1450.64,590.3,1435.72,588.16,1426.83,588.16Z"/><path class="cls-1" d="M1280.74,534.75c-23.67,0-40.85,18.39-40.85,43.74s17.18,43.75,40.85,43.75,40.64-18.4,40.64-43.75S1304.29,534.75,1280.74,534.75Z"/><path class="cls-1" d="M1129.8,536.3h-9.88v37.11c2.22.14,5.27.25,10.46.25,15.88,0,26.14-7.67,26.14-19.55C1156.52,539.39,1142,536.3,1129.8,536.3Z"/><polygon class="cls-1" points="207.6 581.79 237.75 581.79 222.68 539.35 207.6 581.79"/><path class="cls-1" d="M1447,550.82c0-13-14.06-14.91-22.45-14.91h-12.4v31h13C1439,566.89,1447,561,1447,550.82Z"/><polygon class="cls-1" points="1625.18 581.79 1655.33 581.79 1640.26 539.35 1625.18 581.79"/><path class="cls-1" d="M416.93,1264.83H400.5v-65.48q0-3.27,0-6.54t.17-6.41q.14-3.12.28-5.91a45.31,45.31,0,0,1-3.52,3.41q-2.12,1.88-4.55,3.9l-11.62,9.39-8.22-10.44,30.21-23.66h13.64Z"/><path class="cls-1" d="M488.91,1161.7a43.85,43.85,0,0,1,15.93,2.75,25.42,25.42,0,0,1,11.28,8.18,21.47,21.47,0,0,1,4.17,13.5,21.93,21.93,0,0,1-2.54,10.75,26.85,26.85,0,0,1-6.85,8.07,53.47,53.47,0,0,1-9.67,6.09,68.86,68.86,0,0,1,11,6.68,31.2,31.2,0,0,1,8.15,8.84,22.42,22.42,0,0,1,3.09,11.9,25.22,25.22,0,0,1-4.34,14.78,28,28,0,0,1-12.08,9.61,44.71,44.71,0,0,1-18,3.37q-11.15,0-18.89-3.27a24.42,24.42,0,0,1-15.9-23.94,25,25,0,0,1,2.81-12.14,28.71,28.71,0,0,1,7.52-8.91,53.64,53.64,0,0,1,10.26-6.37,50.22,50.22,0,0,1-8.77-6.4,28.22,28.22,0,0,1-6.3-8.31,24.27,24.27,0,0,1-2.33-10.89,20.93,20.93,0,0,1,4.25-13.3,26.19,26.19,0,0,1,11.41-8.21A43.44,43.44,0,0,1,488.91,1161.7Zm-19,76.69a14.22,14.22,0,0,0,4.73,11q4.74,4.32,14.13,4.32t14.13-4.25a14.15,14.15,0,0,0,4.87-11.2,13.06,13.06,0,0,0-2.44-7.83,24.43,24.43,0,0,0-6.58-6.09,63.63,63.63,0,0,0-9.14-4.94l-2.23-1a49,49,0,0,0-9.33,5.22,21.85,21.85,0,0,0-6,6.48A16.09,16.09,0,0,0,469.91,1238.39Zm18.86-64.09a17.68,17.68,0,0,0-11.1,3.34,11.22,11.22,0,0,0-4.35,9.46,13.14,13.14,0,0,0,2.12,7.52,19.09,19.09,0,0,0,5.74,5.39,67.17,67.17,0,0,0,7.94,4.21,53,53,0,0,0,7.69-4.14,18.74,18.74,0,0,0,5.5-5.43,13.65,13.65,0,0,0,2.05-7.55q0-6.19-4.35-9.5T488.77,1174.3Z"/><path class="cls-1" d="M538.9,1233.52v-13.85h36v13.85Z"/><path class="cls-1" d="M659.39,1264.83h-69v-12.32l26.38-26.72q7.65-7.79,12.59-13.46a48.91,48.91,0,0,0,7.38-10.76,25.26,25.26,0,0,0,2.43-11.06q0-7.3-4.24-11.1t-11.2-3.79a28.6,28.6,0,0,0-12.22,2.61,57.85,57.85,0,0,0-11.58,7.41l-9-10.86a75.24,75.24,0,0,1,9-6.54,45.72,45.72,0,0,1,10.82-4.8,47.29,47.29,0,0,1,13.71-1.81,37.65,37.65,0,0,1,16.7,3.44,25.55,25.55,0,0,1,10.82,9.61,26.56,26.56,0,0,1,3.8,14.23,35,35,0,0,1-3.28,15.2,58.43,58.43,0,0,1-9.32,13.75q-6.06,6.83-14.4,14.75l-17.61,17.12v.76h48.15Z"/><path class="cls-1" d="M748.85,1242.49H735.07v22.34H718.92v-22.34H672.58v-12.38l46.56-67.3h15.93v66.11h13.78Zm-29.93-13.57v-25.26q0-3.14.08-6.33t.2-6.23c.1-2,.19-3.86.28-5.53s.17-3.09.21-4.25h-.55c-.88,1.91-1.85,3.82-2.89,5.74a54.07,54.07,0,0,1-3.45,5.54l-25,36.32Z"/><path class="cls-1" d="M895.19,1264.83H874.66l-49.83-81.21h-.62q.27,4.11.52,8.73t.42,9.5q.17,4.88.31,9.81v53.17H810.29V1163.09h20.39l49.75,80.65h.49c-.09-2.36-.21-5.08-.35-8.14s-.26-6.23-.38-9.5-.2-6.43-.25-9.49v-53.52h15.25Z"/><path class="cls-1" d="M1016.51,1213.82a72.83,72.83,0,0,1-3,21.4,46.2,46.2,0,0,1-8.87,16.6,38.69,38.69,0,0,1-14.82,10.68,53.92,53.92,0,0,1-20.88,3.72q-12.18,0-21.15-3.72A38.23,38.23,0,0,1,933,1251.82a45.47,45.47,0,0,1-8.77-16.63,74.88,74.88,0,0,1-2.89-21.51q0-15.72,5.15-27.45a39.34,39.34,0,0,1,15.8-18.23q10.63-6.51,26.86-6.51,15.86,0,26.37,6.47a40,40,0,0,1,15.76,18.23Q1016.5,1198,1016.51,1213.82Zm-77.66,0a58.45,58.45,0,0,0,3.2,20.36,27,27,0,0,0,9.85,13.22Q958.53,1252,969,1252t17.08-4.63a26.5,26.5,0,0,0,9.74-13.22,60,60,0,0,0,3.1-20.36q0-17.8-7.09-28t-22.69-10.16q-10.44,0-17.16,4.63a26.9,26.9,0,0,0-9.91,13.15A58,58,0,0,0,938.85,1213.82Z"/><path class="cls-1" d="M1118.07,1163.09l-35.56,101.74h-17.75l-35.49-101.74h17.12l21.44,63.74c.65,1.86,1.35,4.11,2.12,6.75s1.48,5.32,2.16,8,1.19,5.08,1.56,7.17q.55-3.13,1.57-7.17t2.12-8q1.11-4,2.09-6.81l21.43-63.68Z"/><path class="cls-1" d="M1193.33,1264.83h-57.62V1163.09h57.62v14.06h-40.92v27.63h38.34v14h-38.34v31.94h40.92Z"/><path class="cls-1" d="M1263.43,1264.83l-29.29-84.9h-.63c.14,1.91.3,4.49.49,7.76s.34,6.8.48,10.58.21,7.36.21,10.75v55.81h-15.17V1163.09H1243l28.19,81.21h.41l29.09-81.21h23.45v101.74h-15.93v-56.65c0-3.1,0-6.46.14-10s.21-7,.38-10.26.31-5.85.45-7.8h-.62l-30.34,84.76Z"/><path class="cls-1" d="M1355.11,1163.09h30.28q19.68,0,29.71,5.71t10,19.76a25.8,25.8,0,0,1-2,10.51,19.61,19.61,0,0,1-6,7.69,21.79,21.79,0,0,1-9.61,4.07v.7a32.38,32.38,0,0,1,10.55,3.68,18.94,18.94,0,0,1,7.3,7.59q2.69,4.93,2.68,12.8,0,9.33-4.42,15.87a27.43,27.43,0,0,1-12.59,10,50.26,50.26,0,0,1-19.38,3.41h-36.54Zm16.7,42h16q11.34,0,15.69-3.68t4.35-10.72q0-7.31-5.18-10.47t-16.39-3.17h-14.48Zm0,13.57v32.22h17.61q11.63,0,16.35-4.52t4.74-12.25a15.68,15.68,0,0,0-2.09-8.21,13.3,13.3,0,0,0-6.89-5.36q-4.8-1.87-13-1.88Z"/><path class="cls-1" d="M1511,1264.83h-57.61V1163.09H1511v14.06H1470v27.63h38.34v14H1470v31.94H1511Z"/><path class="cls-1" d="M1565.75,1163.09q13.14,0,21.74,3.24t12.81,9.77q4.2,6.56,4.21,16.57a27.36,27.36,0,0,1-2.79,12.84,26.38,26.38,0,0,1-7.3,8.8,39.51,39.51,0,0,1-9.68,5.5l28.89,45h-18.86l-24.64-40.71h-16.28v40.71h-16.7V1163.09Zm-1.11,14h-10.79v33.19h11.55q11.55,0,16.81-4.31t5.25-12.74q0-8.76-5.6-12.45T1564.64,1177.08Z"/><path class="cls-1" d="M1530.63,313.62l37.81-72.05a36.74,36.74,0,0,0,4.15-17.32,42.6,42.6,0,0,0-1-9.07,50.78,50.78,0,0,0-5.08-13.35,60.59,60.59,0,0,0-12.8-16,67,67,0,0,0-13.6-9.41c-1.51-.79-3-1.5-4.57-2.16l-1.32-.55c-1.19-.49-2.38-.93-3.57-1.34-.4-.14-.79-.29-1.19-.42q-2.31-.75-4.62-1.32l-.86-.19c-1.28-.29-2.56-.54-3.84-.76l-1.39-.21c-1.26-.18-2.52-.33-3.77-.43l-.89-.08c-1.46-.1-2.92-.13-4.36-.12a57.12,57.12,0,0,0-5.74.31c-.38,0-.73.12-1.1.17-1.51.19-3,.44-4.47.76-.59.13-1.18.28-1.76.43-1.25.32-2.47.68-3.66,1.09-.57.19-1.14.38-1.69.59-1.37.53-2.69,1.12-4,1.76-.31.15-.63.27-.93.43a41.15,41.15,0,0,0-4.45,2.74c-.38.27-.74.58-1.11.86a36.19,36.19,0,0,0-2.93,2.45c-.43.4-.84.81-1.25,1.23a33.14,33.14,0,0,0-2.42,2.74c-.34.42-.69.82-1,1.26a34.34,34.34,0,0,0-2.81,4.44l-9.68,18.44-28.12,53.61Z"/><path class="cls-1" d="M1422.15,282.14l-37.8,72.05A38.06,38.06,0,0,0,1381,379a46.81,46.81,0,0,0,2.56,8.88c.51,1.3,1.07,2.58,1.7,3.85a56.43,56.43,0,0,0,4.48,7.58,64.92,64.92,0,0,0,23,20c1.52.8,3,1.5,4.58,2.17l1.31.54c1.19.49,2.39.94,3.59,1.35.39.14.78.29,1.18.41,1.54.5,3.08.95,4.62,1.32l.84.19c1.29.29,2.58.55,3.87.76l1.37.22c1.27.18,2.53.32,3.79.42l.87.09c1.47.09,2.92.13,4.37.12a56.9,56.9,0,0,0,5.73-.32c.38,0,.75-.12,1.13-.17q2.25-.28,4.44-.75c.6-.13,1.19-.29,1.78-.44,1.24-.32,2.45-.68,3.65-1.09.56-.19,1.13-.38,1.69-.59,1.36-.52,2.68-1.11,4-1.75.31-.15.63-.28.94-.44a41.55,41.55,0,0,0,4.44-2.73c.39-.27.74-.58,1.12-.86,1-.78,2-1.59,2.93-2.45.43-.4.84-.81,1.25-1.23.85-.87,1.65-1.79,2.42-2.74.33-.42.68-.83,1-1.26a36.13,36.13,0,0,0,2.8-4.44h0l14-26.64,23.83-45.41Z"/><path class="cls-1" d="M1530.64,354.11h124.69a63,63,0,0,0-7.44-20.89,63.74,63.74,0,0,0-9.86-13,63.15,63.15,0,0,0-90.09,0,63.74,63.74,0,0,0-9.86,13A63,63,0,0,0,1530.64,354.11Z"/><path class="cls-1" d="M1530.64,375.05c.22,1.33.53,2.63.84,3.93a63.07,63.07,0,0,0,50,47.84c1.86.34,3.76.6,5.67.77s3.85.27,5.82.27a63.23,63.23,0,0,0,61.16-47.28c.14-.53.22-1.07.34-1.6.31-1.3.62-2.6.84-3.93Z"/><path class="cls-1" d="M1924.53,379H1687.87l-.25,1.46c-.31,1.89-.72,3.74-1.16,5.6-.19,1-.38,1.85-.61,2.72A95.88,95.88,0,0,1,1593,460.6c-2.91,0-5.86-.13-8.76-.4s-5.78-.66-8.61-1.18a95.4,95.4,0,0,1-16.45-4.56,97.07,97.07,0,0,1-15.1-7.26,96,96,0,0,1-25-21.41,92.77,92.77,0,0,1-6-8.17l-1.69,3.21a69.53,69.53,0,0,1-5.34,8.52c-.54.73-1.17,1.53-1.82,2.32-1.55,1.94-3.09,3.68-4.65,5.28-.81.82-1.63,1.63-2.48,2.41a66.38,66.38,0,0,1-5.16,4.33c-.75.61-1.46,1.14-2.19,1.66a77.07,77.07,0,0,1-8,4.94c-.64.33-1.35.68-2.09,1-2.07,1-4.2,1.95-6.32,2.76-.94.36-1.81.67-2.68,1-2.25.76-4.28,1.37-6.36,1.9-1.14.29-2,.51-3,.71-2.11.46-4.38.85-6.71,1.17-.81.13-1.59.23-2.37.32a88.61,88.61,0,0,1-8.9.49h-.67q-3,0-6.1-.19l-1.61-.14c-1.91-.17-3.72-.38-5.53-.64-.72-.1-1.46-.21-2.18-.34-1.77-.29-3.62-.65-5.48-1.08-.55-.11-1.08-.23-1.6-.36-2.19-.53-4.46-1.18-6.86-1.95-.61-.2-1.13-.38-1.64-.57-1.89-.65-3.68-1.32-5.46-2.05-.61-.25-1.29-.53-2-.82-2.43-1.05-4.66-2.1-6.74-3.2a97.93,97.93,0,0,1-34.58-30.17,88.78,88.78,0,0,1-7.09-12c-1.08-2.21-2-4.25-2.78-6.31a79.84,79.84,0,0,1-4.29-15c-.36-2-.63-3.93-.84-5.88H70.06A23.13,23.13,0,0,0,47,402.09V747.31a23.13,23.13,0,0,0,23.11,23.11H1924.53a23.13,23.13,0,0,0,23.11-23.11V402.09A23.13,23.13,0,0,0,1924.53,379ZM289.82,644.09H237V620.88H251l-5.85-17H200.25l-5.84,17h14.71v23.21H156.31v-23.4h11.6l30.36-84.59H185.14V512.9H261v23.2H247.86l30.36,84.59h11.6Zm152.67-107.8H428.56V644.22l-14.64.48-.61-.77-66-84.06v60.82h15.87v23.4H307.63v-23.4h14.51v-84.4H307.63V512.9h35.95l59.84,76.27V536.29H387.55V512.9h54.94ZM575,555.84H550.48V535.72H530.72v85h15.87v23.4H489.13v-23.4H505v-85H485.24v20.12H460.69V512.9H575Zm76.42-19.55H636v84.4h15.48v23.4H594.78v-23.4h15.48v-84.4H594.78V512.9h56.68ZM831,644.09H774.93v-23.4h15.22L788,563.83l-33.6,59h-5.14l-33.59-59-2.18,56.86h15.21v23.4H673v-23.4h15.18l3.89-84.4H676.24V512.9h37.9l38,68.77,38-68.77h37.7v23.39H812l3.89,84.4H831Zm78.36-107.8H893.92v84.4H909.4v23.4H852.72v-23.4H868.2v-84.4H852.72V512.9H909.4Zm146,87.42c-13,14.42-32.15,22.7-52.52,22.7-40.79,0-69.27-27.93-69.27-67.92,0-38.72,29.61-67.91,68.88-67.91,31.67,0,51.27,17,51.27,32.69,0,10.2-6.67,17.6-15.86,17.6-9.79,0-16.63-6.44-16.63-15.66a19.33,19.33,0,0,1,.92-5.89c-2.83-1.82-9-4.57-20.28-4.57-24.23,0-41.81,18.31-41.81,43.55,0,25.46,18,43.94,42.78,43.94,13.38,0,25.21-5.46,35.16-16.22l1.39-1.5,17.17,17.86Zm137.68,20.38h-32.5l-25.5-48.3a144,144,0,0,1-15.15.21v24.69h15.87v23.4h-56.1v-23.4h14.51v-84.4h-14.51V512.9H1131c32.59,0,52,15.12,52,40.43,0,15.5-8.83,28.94-23.19,35.56l17.94,31.8h15.31Zm87.09,2.32c-38.69,0-66.76-28.56-66.76-67.92s28.48-67.91,67.72-67.91c38.68,0,66.76,28.56,66.76,67.91S1319.4,646.41,1280.16,646.41ZM1427,644.09h-55v-23.4h14.52v-84.4h-14.52V512.9h52.82c29.84,0,48.37,13.57,48.37,35.4,0,12.62-6.52,22.7-18.09,28.28,14.45,5.65,21.77,15.71,21.77,30C1476.94,629.7,1457.81,644.09,1427,644.09Zm129-107.8h-15.48v84.4h15.48v23.4h-56.68v-23.4h15.48v-84.4h-15.48V512.9h56.68Zm151.33,107.8h-52.81V620.88h13.93l-5.84-17h-44.85l-5.84,17h14.71v23.21h-52.81v-23.4h11.6l30.36-84.59h-13.13V512.9h75.84v23.2h-13.12l30.36,84.59h11.6Zm114.16,0h-96.35v-23.4h14.51v-84.4h-14.51V512.9h57.07v23.39h-16.84v84.59h31.17v-18h25Z"/></svg>